<?xml version="1.0" encoding="UTF-8"?>
<svg id="a" data-name="Layer 1" xmlns="http://www.w3.org/2000/svg" viewBox="0 0 100 100">
  <path d="M52.82,99.09c-.23-.16-.41-.42-.66-.54-.78-.38-1.31.14-.84-1.28l-.51-.14c-.11-.16-.12-1.01,0-1.16.1-.12.36-.1.41-.25.23-.65-.57-1.64-.83-2.22-.38-.85-.64-1.74-1.11-2.55-.39-.69-.96-1.23-1.27-1.97-.84-1.99-.86-4.27-1.19-6.37-.27-1.71-1.85-4.23-2.7-5.78-.38-.69-.55-2.72-.42-3.5.09-.52.51-1.15.67-1.74s.15-1.21.36-1.72c.37-.91,1.33-1.27,1.43-2.31.06-.64-.11-1.35-.27-1.97-.11-.42-.7-1.68-.52-1.98.06-.1.31-.12.36-.31.15-.51-.91-2.27-1.11-2.85-.18-.54-.15-1.15-.4-1.68-.95-2.04-3.48-3.72-3.95-5.94-.04-.17-.03-.35-.02-.52l.65-.22c.07-.6.03-1.31.1-1.89.12-.88.81-2.29.42-3.1-.14-.29-1.12-1.34-1.41-1.42-.37-.09-1.71.28-2.22.31-1.66.09-1.28-1.14-2.04-2.11-.66-.84-1.17-.78-2.2-.71-2.22.16-3.9,1.37-5.91,2.15-.51.06-.45-.16-.79-.27-.62-.2-2.76-.29-3.43-.22-1.09.11-1.94,1.16-3.05.98-.97-.16-3.25-2.64-4.22-3.34-.8-.58-1.99-.79-2.22-1.85-.08-.4-.03-.98-.12-1.38-.1-.46-1.13-1.37-1.48-1.76-.13-.14-.54-.8-.58-.83-.42-.25-1.05.49-1.37-.21-.13-.28.13-.6.02-.94-.04-.13-.3-.31-.39-.52-.36-.83.05-2.18-.34-2.73-.2-.28-.61-.39-.75-.75,1.15-.39,1.16-1.58,1.45-2.53s.67-1.45.52-2.51c-.08-.54-.7-1.29-.31-1.84.13-.18.36-.05.33-.26-.14-.46-.92-.61-1.05-1.04-.07-.24.1-1.13.19-1.4.18-.54.63-.8.87-1.29.2-.42.25-.9.5-1.33.28-.49.8-.81,1.08-1.33.43-.81.51-1.63,1.2-2.37.13-.14.32-.18.45-.32.38-.41.39-1.14.82-1.48.32-.24.84-.28,1.22-.44.84-.36,1.99-1.38,2.52-2.13.6-.86.15-1.16.29-2.04.07-.43.71-1.9.99-2.21.71-.77,1.84-.97,2.55-1.73.49-.52,1.24-2.35,1.66-2.49.63-.21.47.26.7.54.49.61,1.65.18,2.25.24.26.03.44.19.68.23,1.07.19,1.16-.46,1.93-.86,1.49-.76,3.6-1.34,5.28-1.45.47-.03,1.29-.14,1.49.33.33-.46.99-.25,1.2-.71l.12-.04c.23.04.42.26.67.26.19,0,.3-.17.49-.18s.39.14.59.17c.75.09,1.44-.51,2.22-.31.4.11.48.53,1.17.14.73.67-.45,1.11-.44,1.54,0,.28.52.41.62.62.14.31-.07.87.28,1.21-.02.25-1.13.11-1.3.77-.19.74.66.24,1.01.37.14.05.36.51.51.65.84.79,1.96.35,2.8.69.16.06,1.23.61,1.31.68.35.3.27.62.46.95.31.53.98.42,1.53.55.26.06.52.13.77.23.72.28,1.39,1.09,2.14.86.83-.26.32-1.49.42-2.08.12-.71,2-1.59,2.68-1.44.17.04.3.21.47.28s.35.03.53.13c.23.13.25.42.42.58.47.46,1.41.04,1.96.45.16.12.19.35.41.42.44.14,1.36.2,1.92.33s2.22.7,2.58.59c.2-.06.58-.37.85-.48.51-.21,2.04-.56,2.44-.13.24.26.34,1.83.48,2.31.28.99.8,1.9,1.46,2.7.12.15.31.2.4.35.15.27.06.6.12.88.14.61.99,2.09,1.32,2.75.18.35.8.9.88,1.2.09.35-.06.74.07,1.1s.92.94,1.19,1.31c.31.42.24.62.41,1,.07.15.26.26.32.43.12.38,0,1.08.05,1.53.19,1.94,1.76,2.22,2.34,3.98.18.56.2,1.62.87,1.79.21.05.5-.05.65.1.2.19.04.58.2.8.14.19.66.42.84.57.57.48,1.25,1.33,1.74,1.91.35.42,1.04.99,1.08,1.58.02.33-.22.51-.16.73.07.25,1.1,1.5,1.51,1.45,1.24-.48,2.55-.78,3.86-1.04,1.11-.21,1.66-.08,2.76-.64.57-.29.72-.79,1.33-.04v1c-.1.08-.1.17,0,.25v.58c-.42.43-.32.95-.45,1.42-.14.51-.47,1.21-.7,1.71-1.12,2.51-1.95,4.59-3.79,6.67-1.71,1.93-3.66,3-5.23,5.16-.47.65-.77,1.31-1.34,1.9-.34.35-1.12.83-1.33,1.08-.13.16-.5,1.55-.69,1.96-.29.61-.47.82-.72,1.52-.15.44-.37.42-.28,1.03s.78.99.81,1.27c.01.14-.18.4-.21.59-.22,1.29.09,2.28.71,3.4.12.22.37.38.47.61.3.72-.02,3.12.04,4.11.04.6.32,1.32.23,1.89s-.91,1.8-1.31,2.26c-.97,1.12-2.6,1.14-3.52,2.29-.16.21-.25.46-.42.66-.46.54-1.35.96-1.91,1.66-.6.75-.28.52-.02,1.1.37.83.7,2.01.65,2.92-.01.29-.21.56-.25.84-.05.41.07.73-.1,1.14-.42.98-2.26,1.04-2.98,1.86-.13,1.2-.07,2.53-.66,3.64-.28.53-.86.86-1.25,1.33-.58.69-1.01,1.55-1.62,2.28-1.39,1.67-3.36,3.54-5.51,4.13-1.39.38-2.27-.06-3.53.21-.39.08-.68.28-1.04.37-.74.19-1.42-.03-2.01.61h-.33Z" style="fill: #f9c315;"/>
  <path d="M89.12,73.26l.24,1.27c-.77.73-.77,1.88-1.06,2.84-.4,1.32-.92,2.65-1.35,3.97-.15.46-.46.9-.59,1.41-.1.4-.08.84-.16,1.17-.05.18-.29.36-.38.54-.22.47-.42,1.45-1.08,1.66-.24.08-1.26.35-1.47.36-.58.02-1.3-.2-1.71-.63-.61-.63-.34-1.06-.42-1.82s-.53-1.43-.49-2.17c.07-1.42,1.77-2.39,1.65-3.73-.08-.88-.51-1.72-.4-2.67.06-.58.73-1.1.71-1.79.7-.31,1.45-.58,2.15-.93.27-.13.93-.43,1.1-.65.15-.19.11-.4.24-.59.12-.17.38-.23.53-.47s.5-1.67.8-1.6l.27.23.24-.07c.06-.65.06-1.44.76-1.74.12,0,.36.36.43.46.53.86.54,2.02.69,2.97.1.64.54,1.49-.09,2.01-.31.25-.29,0-.59-.05Z" style="fill: #f9c315;"/>
</svg>